<?xml version="1.0" encoding="UTF-8" standalone="no"?>
<!-- Created with Inkscape (http://www.inkscape.org/) -->

<svg
   width="200mm"
   height="160mm"
   viewBox="0 0 200 160"
   version="1.1"
   id="svg3366"
   xml:space="preserve"
   inkscape:version="1.2.2 (732a01da63, 2022-12-09)"
   sodipodi:docname="code-crafters-man.svg"
   xmlns:inkscape="http://www.inkscape.org/namespaces/inkscape"
   xmlns:sodipodi="http://sodipodi.sourceforge.net/DTD/sodipodi-0.dtd"
   xmlns="http://www.w3.org/2000/svg"
   xmlns:svg="http://www.w3.org/2000/svg"><sodipodi:namedview
     id="namedview3368"
     pagecolor="#ffffff"
     bordercolor="#000000"
     borderopacity="0.25"
     inkscape:showpageshadow="2"
     inkscape:pageopacity="0.0"
     inkscape:pagecheckerboard="0"
     inkscape:deskcolor="#d1d1d1"
     inkscape:document-units="mm"
     showgrid="false"
     showguides="false"
     inkscape:zoom="0.54425795"
     inkscape:cx="913.16995"
     inkscape:cy="333.48158"
     inkscape:window-width="1920"
     inkscape:window-height="1013"
     inkscape:window-x="1591"
     inkscape:window-y="-9"
     inkscape:window-maximized="1"
     inkscape:current-layer="layer1"><sodipodi:guide
       position="105.1875,113.25"
       orientation="-0.50130681,0.8652696"
       id="guide3537"
       inkscape:locked="false" /><sodipodi:guide
       position="-8.9374997,64.95313"
       orientation="0.5090608,-0.86073056"
       id="guide3541"
       inkscape:locked="false" /><sodipodi:guide
       position="42.109374,107.06251"
       orientation="1,0"
       id="guide3543"
       inkscape:locked="false" /><sodipodi:guide
       position="112.57812,105.85938"
       orientation="1,0"
       id="guide3545"
       inkscape:locked="false" /><sodipodi:guide
       position="133.71875,102.76563"
       orientation="1,0"
       id="guide3547"
       inkscape:locked="false" /><sodipodi:guide
       position="31.796875,1.1874998"
       orientation="0.5090608,-0.86073057"
       id="guide3549"
       inkscape:label=""
       inkscape:locked="false"
       inkscape:color="rgb(0,134,229)" /><sodipodi:guide
       position="59.296873,-1.9062512"
       orientation="0.5090608,-0.86073057"
       id="guide3551"
       inkscape:label=""
       inkscape:locked="false"
       inkscape:color="rgb(0,134,229)" /><sodipodi:guide
       position="88.171871,15.453129"
       orientation="0.50830472,0.86117728"
       id="guide3553"
       inkscape:locked="false" /><sodipodi:guide
       position="88.515621,85.921877"
       orientation="1,0"
       id="guide3555"
       inkscape:locked="false" /><sodipodi:guide
       position="57.921874,45.531248"
       orientation="1,0"
       id="guide3557"
       inkscape:locked="false" /><sodipodi:guide
       position="3.953125,84.374997"
       orientation="0.50830466,0.86117732"
       id="guide3559"
       inkscape:label=""
       inkscape:locked="false"
       inkscape:color="rgb(0,134,229)" /><sodipodi:guide
       position="88.343748,122.875"
       orientation="0.50830466,0.86117732"
       id="guide3563"
       inkscape:label=""
       inkscape:locked="false"
       inkscape:color="rgb(0,134,229)" /><sodipodi:guide
       position="88.515623,103.45313"
       orientation="0.50830466,0.86117732"
       id="guide3565"
       inkscape:label=""
       inkscape:locked="false"
       inkscape:color="rgb(0,134,229)" /><sodipodi:guide
       position="-5.6718748,14.765629"
       orientation="0.5090608,-0.86073057"
       id="guide3567"
       inkscape:label=""
       inkscape:locked="false"
       inkscape:color="rgb(0,134,229)" /><sodipodi:guide
       position="-8.0781248,41.749997"
       orientation="-0.50130688,0.86526956"
       id="guide3569"
       inkscape:label=""
       inkscape:locked="false"
       inkscape:color="rgb(0,134,229)" /><sodipodi:guide
       position="23.546874,3.9374997"
       orientation="-0.50130688,0.86526956"
       id="guide3571"
       inkscape:label=""
       inkscape:locked="false"
       inkscape:color="rgb(0,134,229)" /><sodipodi:guide
       position="23.031249,126.82813"
       orientation="0.50830466,0.86117732"
       id="guide3573"
       inkscape:label=""
       inkscape:locked="false"
       inkscape:color="rgb(0,134,229)" /><sodipodi:guide
       position="41.25,97.609377"
       orientation="0.50830466,0.86117732"
       id="guide3575"
       inkscape:label=""
       inkscape:locked="false"
       inkscape:color="rgb(0,134,229)" /><sodipodi:guide
       position="3.265625,-1.2187512"
       orientation="0.5090608,-0.86073057"
       id="guide3577"
       inkscape:label=""
       inkscape:locked="false"
       inkscape:color="rgb(0,134,229)" /><sodipodi:guide
       position="14.953125,105.51563"
       orientation="0.50830466,0.86117732"
       id="guide3579"
       inkscape:label=""
       inkscape:locked="false"
       inkscape:color="rgb(0,134,229)" /></sodipodi:namedview><defs
     id="defs3363">
	

		
		
	
			
			
			
			
			
			
			
		
			
			
		
				
			
				
				
			</defs><g
     inkscape:label="Layer 1"
     inkscape:groupmode="layer"
     id="layer1"><ellipse
       style="opacity:0.13357401;fill:#666666;fill-opacity:1;stroke:none;stroke-width:0.993848;stroke-linecap:round;stroke-linejoin:round;stroke-dasharray:none;stroke-opacity:1"
       id="path14898"
       cx="93.824234"
       cy="82.643105"
       rx="77.295616"
       ry="76.809471" /><path
       style="fill:#000000;fill-opacity:1;stroke:none;stroke-width:2.88139"
       d="M 32.772619,117.67419 32.545756,79.8915 53.417061,67.530464 54.097647,104.61347 c 0.01146,0.12895 22.705286,-12.869772 30.162976,-18.234362 l 22.817157,14.720042 -29.473447,17.96684 16.42103,10.26955 59.793957,-35.423474 0.0976,25.161484 -59.891567,35.91697 z"
       id="path3635"
       sodipodi:nodetypes="cccccccccccc" /><path
       style="fill:#000000;fill-opacity:1;stroke:none;stroke-width:2.88139"
       d="M 32.99948,46.540027 94.252223,9.2237006 152.78262,44.674211 131.23073,57.734929 94.252223,35.34513 32.545756,71.961779 Z"
       id="path4216" /><path
       style="fill:#000000;fill-opacity:1;stroke:none;stroke-width:2.88139"
       d="M 63.398991,62.399468 83.816573,49.805206 147.33793,88.287649 126.46662,100.88184 Z"
       id="path4218" /><g
       id="BACKGROUND"
       transform="matrix(0.26458333,0,0,0.26458333,253.72974,22.591357)">
</g><rect
       x="270.52893"
       y="44.494358"
       style="fill:none;stroke-width:0.264583"
       width="178.06828"
       height="22.525303"
       id="rect11314" /><path
       style="opacity:1;fill:#000000;fill-opacity:1;stroke:none;stroke-width:1.01719;stroke-linecap:round;stroke-linejoin:round;stroke-opacity:1"
       d="m 176.7716,97.332358 4.35949,-2.795825 c 1.29093,-0.791457 1.50602,-3.144302 2.94772,-4.263316 2.92919,-2.707195 4.95508,-5.830027 4.8603,-9.928632 0.39875,-0.869382 1.0232,-0.562759 1.75423,0.299261 0.94594,0.805005 1.34491,1.772441 0.67272,3.057947 l -0.7927,1.875741 c -0.0614,0.674914 -0.94867,1.976278 0.92824,1.180744 l 3.84693,-1.782631 c 1.94361,-0.695307 2.20858,1.967898 1.42061,2.624085 l -2.65868,1.411591 2.40069,-0.398607 c 2.27678,-0.272147 2.35695,1.555591 1.35439,2.617905 l -2.65475,1.723471 2.25863,-0.877667 c 1.43891,0.49018 1.92442,2.044171 0.27851,3.167332 l -2.2952,1.172124 1.89956,-0.510387 c 1.86738,0.30247 0.64551,2.116268 0.10176,2.246318 l -5.19982,2.563558 c -2.41273,1.12159 -4.27828,0.91683 -6.16228,0.75676 -2.52316,-0.63798 -3.36392,-0.90146 -5.76073,0.41826 -0.30669,0.478 -10.84146,8.61896 -11.41483,8.12775 l -25.61532,3.62944 3.40279,-9.44958 19.35279,-1.85371 c 0,0 6.44722,-2.628697 10.71495,-5.011932 z"
       id="path12008"
       sodipodi:nodetypes="ccccccccccccccccccccccccccc" /><path
       style="opacity:1;fill:#000000;fill-opacity:1;stroke:none;stroke-width:0.762485;stroke-linecap:round;stroke-linejoin:round;stroke-dasharray:none;stroke-opacity:1"
       d="m 12.25583,133.48646 c -4.0750674,2.17171 -7.5998814,4.93301 -9.9431474,8.96035 -0.672137,1.94604 -0.02615,1.83847 1.000476,1.1379 l 3.892375,-4.3579 c -0.873219,2.56738 -3.354604,5.02858 -5.27774,7.52664 -1.67463602,1.9583 0.144898,1.95812 1.116762,1.1307 1.90124,-0.95279 6.03098,-6.1581 6.003829,-6.16869 -1.362342,3.03295 -3.052233,5.96292 -5.012213,8.83933 -1.015942,1.2692 -0.02232,2.84303 1.786617,1.07072 2.236964,-2.63274 3.835242,-5.87895 5.8170104,-8.74153 l -4.1326634,10.05857 c -1.267511,2.22305 0.366741,2.30069 1.293525,1.08282 1.062596,-1.26014 2.0209614,-2.65965 2.5805884,-4.22122 0.962808,-1.9518 1.787797,-4.05131 3.157043,-5.56763 1.168774,-1.40162 2.278973,-1.55649 3.330599,-0.46487 0.840742,1.03506 1.514618,2.26369 2.903511,2.66291 1.23751,0.38699 2.342454,-0.0544 0.990423,-1.48283 -1.023042,-1.20827 -2.132756,-2.36061 -1.475949,-4.65281 0.395438,-2.64117 0.161919,-5.00477 -2.085861,-6.4795 l 0.268072,-6.14543 1.997896,-12.3419 17.828451,-7.84815 -4.878406,-5.56402 -19.513854,9.58471 c -1.905911,6.86735 -0.418138,15.54166 -1.647344,21.98183 z"
       id="path12504"
       sodipodi:nodetypes="ccccccccccccccccccccccccc" /></g></svg>
